<svg xmlns="http://www.w3.org/2000/svg" width="168" height="168" viewBox="0 0 168 168">
    <defs>
        <filter id="a" width="125.7%" height="133.3%" x="-12.9%" y="-20.8%" filterUnits="objectBoundingBox">
            <feOffset in="SourceAlpha" result="shadowOffsetOuter1"/>
            <feGaussianBlur in="shadowOffsetOuter1" result="shadowBlurOuter1" stdDeviation="8"/>
            <feColorMatrix in="shadowBlurOuter1" result="shadowMatrixOuter1" values="0 0 0 0 0.105882353 0 0 0 0 0.266666667 0 0 0 0 0.474509804 0 0 0 0.15 0"/>
            <feMerge>
                <feMergeNode in="shadowMatrixOuter1"/>
                <feMergeNode in="SourceGraphic"/>
            </feMerge>
        </filter>
    </defs>
    <g fill="none" fill-rule="evenodd">
        <path fill="#transparent" d="M-28-106h375v667H-28z"/>
        <g filter="url(#a)" transform="translate(4 4)">
            <path fill="#FFF" d="M12 12h136v136H12z"/>
            <g fill="#203040">
                <path d="M15.886 43.086h3.885v-27.2h-3.885zM15.886 66.4h3.885V46.971h-3.885zM15.886 78.057h3.885v-7.771h-3.885zM15.886 85.829h3.885v-3.886h-3.885zM15.886 97.486h3.885v-7.772h-3.885zM15.886 109.143h3.885v-7.772h-3.885zM15.886 144.114h3.885v-27.2h-3.885zM19.771 19.771h3.886v-3.885h-3.886zM19.771 43.086h3.886V39.2h-3.886zM19.771 50.857h3.886v-3.886h-3.886zM19.771 62.514h3.886V58.63h-3.886zM19.771 81.943h3.886v-3.886h-3.886zM19.771 89.714h3.886V85.83h-3.886zM19.771 109.143h3.886V97.486h-3.886zM19.771 120.8h3.886v-3.886h-3.886zM19.771 144.114h3.886v-3.885h-3.886zM23.657 19.771h3.886v-3.885h-3.886zM23.657 35.314h3.886V23.657h-3.886zM23.657 43.086h3.886V39.2h-3.886zM23.657 62.514h3.886V58.63h-3.886zM23.657 70.286h3.886V66.4h-3.886zM23.657 85.829h3.886V74.17h-3.886zM23.657 93.6h3.886v-3.886h-3.886zM23.657 105.257h3.886v-3.886h-3.886zM23.657 120.8h3.886v-3.886h-3.886zM23.657 136.343h3.886v-11.657h-3.886zM23.657 144.114h3.886v-3.885h-3.886zM27.543 19.771h3.886v-3.885h-3.886zM27.543 35.314h3.886V23.657h-3.886zM27.543 43.086h3.886V39.2h-3.886zM27.543 85.829h3.886v-3.886h-3.886zM27.543 113.029h3.886v-3.886h-3.886zM27.543 120.8h3.886v-3.886h-3.886zM27.543 136.343h3.886v-11.657h-3.886zM27.543 144.114h3.886v-3.885h-3.886zM31.429 19.771h3.885v-3.885H31.43zM31.429 35.314h3.885V23.657H31.43zM31.429 43.086h3.885V39.2H31.43zM31.429 58.629h3.885V46.97H31.43zM31.429 78.057h3.885v-7.771H31.43zM31.429 105.257h3.885v-3.886H31.43zM31.429 113.029h3.885v-3.886H31.43zM31.429 120.8h3.885v-3.886H31.43zM31.429 136.343h3.885v-11.657H31.43zM31.429 144.114h3.885v-3.885H31.43zM35.314 19.771H39.2v-3.885h-3.886zM35.314 43.086H39.2V39.2h-3.886zM35.314 50.857H39.2v-3.886h-3.886zM35.314 58.629H39.2v-3.886h-3.886zM35.314 66.4H39.2v-3.886h-3.886zM35.314 89.714H39.2V70.286h-3.886zM35.314 105.257H39.2v-7.771h-3.886zM35.314 120.8H39.2v-3.886h-3.886zM35.314 144.114H39.2v-3.885h-3.886zM39.2 43.086h3.886v-27.2H39.2zM39.2 50.857h3.886v-3.886H39.2zM39.2 58.629h3.886v-3.886H39.2zM39.2 66.4h3.886v-3.886H39.2zM39.2 74.171h3.886v-3.885H39.2zM39.2 81.943h3.886v-3.886H39.2zM39.2 89.714h3.886V85.83H39.2zM39.2 97.486h3.886V93.6H39.2zM39.2 105.257h3.886v-3.886H39.2zM39.2 113.029h3.886v-3.886H39.2zM39.2 144.114h3.886v-27.2H39.2zM43.086 62.514h3.885V58.63h-3.885z"/>
                <path d="M43.086 85.829h3.885v-7.772h-3.885zM43.086 97.486h3.885V93.6h-3.885zM43.086 113.029h3.885v-3.886h-3.885zM46.971 31.429h3.886V15.886h-3.886zM46.971 43.086h3.886v-7.772h-3.886zM46.971 70.286h3.886v-7.772h-3.886zM46.971 81.943h3.886V74.17h-3.886zM46.971 89.714h3.886V85.83h-3.886zM46.971 109.143h3.886v-3.886h-3.886zM46.971 116.914h3.886v-3.885h-3.886zM46.971 128.571h3.886V120.8h-3.886zM46.971 144.114h3.886v-7.771h-3.886zM50.857 23.657h3.886v-7.771h-3.886zM50.857 31.429h3.886v-3.886h-3.886zM50.857 46.971h3.886v-3.885h-3.886zM50.857 54.743h3.886v-3.886h-3.886zM50.857 74.171h3.886V66.4h-3.886zM50.857 85.829h3.886v-3.886h-3.886zM50.857 97.486h3.886V93.6h-3.886zM50.857 124.686h3.886V101.37h-3.886zM50.857 132.457h3.886v-3.886h-3.886zM50.857 144.114h3.886v-3.885h-3.886zM54.743 27.543h3.886V15.886h-3.886zM54.743 43.086h3.886V39.2h-3.886zM54.743 54.743h3.886v-3.886h-3.886zM54.743 66.4h3.886v-7.771h-3.886zM54.743 78.057h3.886v-3.886h-3.886zM54.743 89.714h3.886v-7.771h-3.886zM54.743 97.486h3.886V93.6h-3.886zM54.743 132.457h3.886V120.8h-3.886zM54.743 144.114h3.886v-3.885h-3.886zM58.629 31.429h3.885v-7.772H58.63zM58.629 39.2h3.885v-3.886H58.63zM58.629 50.857h3.885v-3.886H58.63z"/>
                <path d="M58.629 62.514h3.885v-7.771H58.63zM58.629 81.943h3.885v-3.886H58.63zM58.629 93.6h3.885v-7.771H58.63zM58.629 109.143h3.885V97.486H58.63zM58.629 124.686h3.885v-11.657H58.63zM58.629 140.229h3.885v-7.772H58.63zM62.514 19.771H66.4v-3.885h-3.886zM62.514 46.971H66.4V35.314h-3.886zM62.514 58.629H66.4v-7.772h-3.886zM62.514 66.4H66.4v-3.886h-3.886zM62.514 97.486H66.4V74.17h-3.886zM62.514 105.257H66.4v-3.886h-3.886zM62.514 116.914H66.4v-3.885h-3.886zM62.514 144.114H66.4v-3.885h-3.886zM66.4 23.657h3.886v-7.771H66.4zM66.4 39.2h3.886v-7.771H66.4zM66.4 74.171h3.886V62.514H66.4zM66.4 85.829h3.886v-3.886H66.4zM66.4 105.257h3.886v-7.771H66.4zM66.4 120.8h3.886v-7.771H66.4zM66.4 128.571h3.886v-3.885H66.4zM70.286 23.657h3.885v-7.771h-3.885zM70.286 31.429h3.885v-3.886h-3.885zM70.286 50.857h3.885V35.314h-3.885zM70.286 85.829h3.885v-7.772h-3.885zM70.286 101.371h3.885v-3.885h-3.885zM70.286 109.143h3.885v-3.886h-3.885zM70.286 124.686h3.885v-11.657h-3.885zM70.286 132.457h3.885v-3.886h-3.885zM70.286 144.114h3.885v-3.885h-3.885zM74.171 19.771h3.886v-3.885h-3.886zM74.171 31.429h3.886v-3.886h-3.886zM74.171 58.629h3.886V43.086h-3.886zM74.171 66.4h3.886v-3.886h-3.886zM74.171 78.057h3.886v-7.771h-3.886zM74.171 89.714h3.886v-7.771h-3.886zM74.171 109.143h3.886v-7.772h-3.886zM74.171 124.686h3.886v-7.772h-3.886zM74.171 140.229h3.886v-7.772h-3.886zM78.057 27.543h3.886V19.77h-3.886zM78.057 35.314h3.886V31.43h-3.886zM78.057 46.971h3.886V39.2h-3.886zM78.057 54.743h3.886v-3.886h-3.886zM78.057 62.514h3.886V58.63h-3.886zM78.057 78.057h3.886V66.4h-3.886zM78.057 116.914h3.886v-27.2h-3.886zM78.057 140.229h3.886v-15.543h-3.886zM81.943 31.429h3.886v-7.772h-3.886zM81.943 50.857h3.886v-7.771h-3.886zM81.943 66.4h3.886v-7.771h-3.886zM81.943 81.943h3.886V74.17h-3.886zM81.943 93.6h3.886v-7.771h-3.886zM81.943 101.371h3.886v-3.885h-3.886zM81.943 109.143h3.886v-3.886h-3.886zM81.943 128.571h3.886V120.8h-3.886zM81.943 144.114h3.886v-7.771h-3.886zM85.829 23.657h3.885v-7.771H85.83zM85.829 46.971h3.885V27.543H85.83zM85.829 58.629h3.885v-7.772H85.83zM85.829 70.286h3.885V66.4H85.83zM85.829 85.829h3.885V74.17H85.83zM85.829 101.371h3.885v-3.885H85.83zM85.829 109.143h3.885v-3.886H85.83zM85.829 116.914h3.885v-3.885H85.83zM85.829 144.114h3.885v-3.885H85.83zM89.714 23.657H93.6v-3.886h-3.886zM89.714 31.429H93.6v-3.886h-3.886zM89.714 39.2H93.6v-3.886h-3.886zM89.714 50.857H93.6v-7.771h-3.886zM89.714 66.4H93.6v-7.771h-3.886zM89.714 81.943H93.6v-3.886h-3.886zM89.714 97.486H93.6V93.6h-3.886zM89.714 109.143H93.6v-3.886h-3.886zM89.714 116.914H93.6v-3.885h-3.886zM89.714 128.571H93.6v-3.885h-3.886zM89.714 144.114H93.6v-3.885h-3.886zM93.6 23.657h3.886v-7.771H93.6zM93.6 46.971h3.886V35.314H93.6zM93.6 58.629h3.886v-3.886H93.6zM93.6 70.286h3.886V66.4H93.6zM93.6 89.714h3.886V78.057H93.6zM93.6 101.371h3.886v-3.885H93.6zM93.6 113.029h3.886v-7.772H93.6zM93.6 124.686h3.886v-7.772H93.6zM93.6 144.114h3.886v-3.885H93.6zM97.486 27.543h3.885v-3.886h-3.885zM97.486 54.743h3.885V43.086h-3.885zM97.486 66.4h3.885v-7.771h-3.885zM97.486 81.943h3.885V74.17h-3.885zM97.486 93.6h3.885v-7.771h-3.885zM97.486 116.914h3.885v-11.657h-3.885zM97.486 124.686h3.885V120.8h-3.885zM97.486 144.114h3.885v-11.657h-3.885z"/>
                <path d="M101.371 27.543h3.886v-3.886h-3.886zM101.371 43.086h3.886V31.429h-3.886zM101.371 50.857h3.886v-3.886h-3.886zM101.371 62.514h3.886V58.63h-3.886zM101.371 74.171h3.886V66.4h-3.886zM101.371 97.486h3.886V85.829h-3.886zM101.371 128.571h3.886v-19.428h-3.886zM101.371 136.343h3.886v-3.886h-3.886zM105.257 19.771h3.886v-3.885h-3.886zM105.257 35.314h3.886V23.657h-3.886zM105.257 46.971h3.886v-3.885h-3.886zM105.257 58.629h3.886v-3.886h-3.886zM105.257 78.057h3.886V66.4h-3.886zM105.257 89.714h3.886v-7.771h-3.886zM105.257 105.257h3.886v-7.771h-3.886zM105.257 113.029h3.886v-3.886h-3.886zM105.257 120.8h3.886v-3.886h-3.886zM105.257 132.457h3.886v-3.886h-3.886zM109.143 31.429h3.886V15.886h-3.886zM109.143 50.857h3.886V39.2h-3.886zM109.143 58.629h3.886v-3.886h-3.886zM109.143 85.829h3.886v-7.772h-3.886zM109.143 105.257h3.886v-7.771h-3.886zM109.143 132.457h3.886v-23.314h-3.886zM109.143 144.114h3.886v-7.771h-3.886zM113.029 54.743h3.885v-3.886h-3.885zM113.029 74.171h3.885V66.4h-3.885zM113.029 89.714h3.885v-7.771h-3.885zM113.029 101.371h3.885v-3.885h-3.885zM113.029 113.029h3.885v-7.772h-3.885zM113.029 132.457h3.885v-7.771h-3.885zM113.029 144.114h3.885v-3.885h-3.885zM116.914 43.086h3.886v-27.2h-3.886zM116.914 66.4h3.886v-3.886h-3.886zM116.914 81.943h3.886V74.17h-3.886zM116.914 113.029h3.886V89.714h-3.886zM116.914 120.8h3.886v-3.886h-3.886zM116.914 136.343h3.886v-11.657h-3.886zM116.914 144.114h3.886v-3.885h-3.886zM120.8 19.771h3.886v-3.885H120.8zM120.8 43.086h3.886V39.2H120.8zM120.8 50.857h3.886v-3.886H120.8zM120.8 78.057h3.886V58.63H120.8zM120.8 85.829h3.886v-3.886H120.8zM120.8 113.029h3.886V97.486H120.8zM120.8 128.571h3.886v-3.885H120.8zM120.8 136.343h3.886v-3.886H120.8zM120.8 144.114h3.886v-3.885H120.8zM124.686 19.771h3.885v-3.885h-3.885zM124.686 35.314h3.885V23.657h-3.885zM124.686 43.086h3.885V39.2h-3.885zM124.686 62.514h3.885v-7.771h-3.885zM124.686 81.943h3.885v-3.886h-3.885zM124.686 89.714h3.885V85.83h-3.885zM124.686 140.229h3.885V101.37h-3.885zM128.571 19.771h3.886v-3.885h-3.886zM128.571 35.314h3.886V23.657h-3.886zM128.571 43.086h3.886V39.2h-3.886zM128.571 50.857h3.886v-3.886h-3.886zM128.571 58.629h3.886v-3.886h-3.886zM128.571 70.286h3.886V66.4h-3.886zM128.571 81.943h3.886V74.17h-3.886zM128.571 93.6h3.886v-7.771h-3.886zM128.571 105.257h3.886v-3.886h-3.886zM132.457 19.771h3.886v-3.885h-3.886zM132.457 35.314h3.886V23.657h-3.886zM132.457 43.086h3.886V39.2h-3.886zM132.457 54.743h3.886V46.97h-3.886zM132.457 74.171h3.886V62.514h-3.886zM132.457 89.714h3.886v-7.771h-3.886zM132.457 101.371h3.886v-3.885h-3.886zM132.457 120.8h3.886v-11.657h-3.886zM132.457 136.343h3.886v-11.657h-3.886zM136.343 19.771h3.886v-3.885h-3.886zM136.343 43.086h3.886V39.2h-3.886zM136.343 54.743h3.886V46.97h-3.886zM136.343 70.286h3.886v-7.772h-3.886zM136.343 85.829h3.886v-3.886h-3.886zM136.343 124.686h3.886V89.714h-3.886zM136.343 136.343h3.886v-7.772h-3.886zM140.229 43.086h3.885v-27.2h-3.885zM140.229 50.857h3.885v-3.886h-3.885zM140.229 66.4h3.885v-3.886h-3.885zM140.229 81.943h3.885v-3.886h-3.885zM140.229 93.6h3.885v-3.886h-3.885zM140.229 113.029h3.885v-3.886h-3.885zM140.229 132.457h3.885V120.8h-3.885zM140.229 144.114h3.885v-3.885h-3.885z"/>
            </g>
        </g>
    </g>
</svg>
