<?xml version="1.0" encoding="UTF-8"?>
<svg width="24px" height="24px" viewBox="0 0 24 24" version="1.1" xmlns="http://www.w3.org/2000/svg" xmlns:xlink="http://www.w3.org/1999/xlink">
    <!-- Generator: sketchtool 51 (57462) - http://www.bohemiancoding.com/sketch -->
    <title>48C7ADCB-C95C-40C0-A6C0-46260862EF17</title>
    <desc>Created with sketchtool.</desc>
    <defs>
        <path d="M18,19.0568107 L18,5 C18,4.44771525 17.5522847,4 17,4 L7,4 C6.44771525,4 6,4.44771525 6,5 L6,19.0568107 L11.4187618,15.1862665 C11.7664593,14.9379112 12.2335407,14.9379112 12.5812382,15.1862665 L18,19.0568107 Z M12,17.2289036 L5.58123819,21.8137335 C4.91936972,22.2864967 4,21.8133726 4,21 L4,5 C4,3.34314575 5.34314575,2 7,2 L17,2 C18.6568542,2 20,3.34314575 20,5 L20,21 C20,21.8133726 19.0806303,22.2864967 18.4187618,21.8137335 L12,17.2289036 Z" id="path-1"></path>
    </defs>
    <g id="Symbols" stroke="none" stroke-width="1" fill="none" fill-rule="evenodd">
        <g id="atoms/icons/ui/bookmark">
            <mask id="mask-2" fill="white">
                <use xlink:href="#path-1"></use>
            </mask>
            <use id="Shape" fill="#fff" fill-rule="nonzero" xlink:href="#path-1"></use>
            <g id="fill/neutral/N-3" mask="url(#mask-2)" fill="#ff0070">
                <rect id="Rectangle-Copy-20" x="0" y="0" width="24" height="24"></rect>
            </g>
        </g>
    </g>
</svg>