<svg xmlns="http://www.w3.org/2000/svg" xmlns:xlink="http://www.w3.org/1999/xlink" width="18" height="18" viewBox="0 0 18 18">
    <defs>
        <path id="a" d="M2.333 2.333V6.5H6.5V2.333H2.333zM1.5.667h5.833c.46 0 .834.373.834.833v5.833c0 .46-.373.834-.834.834H1.5a.833.833 0 0 1-.833-.834V1.5c0-.46.373-.833.833-.833zm9.167 0H16.5c.46 0 .833.373.833.833v5.833c0 .46-.373.834-.833.834h-5.833a.833.833 0 0 1-.834-.834V1.5c0-.46.373-.833.834-.833zM11.5 6.5h4.167V2.333H11.5V6.5zm-.833 3.333H16.5c.46 0 .833.373.833.834V16.5c0 .46-.373.833-.833.833h-5.833a.833.833 0 0 1-.834-.833v-5.833c0-.46.373-.834.834-.834zm.833 5.834h4.167V11.5H11.5v4.167zm-10-5.834h5.833c.46 0 .834.373.834.834V16.5c0 .46-.373.833-.834.833H1.5a.833.833 0 0 1-.833-.833v-5.833c0-.46.373-.834.833-.834zm.833 5.834H6.5V11.5H2.333v4.167z"/>
    </defs>
    <g fill="none" fill-rule="evenodd">
        <mask id="b" fill="#fff">
            <use xlink:href="#a"/>
        </mask>
        <use fill="#000" fill-rule="nonzero" xlink:href="#a"/>
        <g fill="#FFF" mask="url(#b)">
            <path d="M-1-1h20v20H-1z"/>
        </g>
    </g>
</svg>
