<svg xmlns="http://www.w3.org/2000/svg" xmlns:xlink="http://www.w3.org/1999/xlink" width="20" height="20" viewBox="0 0 24 24">
    <defs>
        <path id="a" d="M16.17 20H3a1 1 0 0 1 0-2h13.17a3.001 3.001 0 1 1 0 2zm0-14H3a1 1 0 1 1 0-2h13.17a3.001 3.001 0 1 1 0 2zm-1.338 6.994a3.001 3.001 0 0 1-5.664 0 1.01 1.01 0 0 1-.114.006H3a1 1 0 0 1 0-2h6.054c.039 0 .077.002.114.006a3.001 3.001 0 0 1 5.664 0 1.01 1.01 0 0 1 .114-.006H21a1 1 0 0 1 0 2h-6.054a1.01 1.01 0 0 1-.114-.006zM12 13a1 1 0 1 0 0-2 1 1 0 0 0 0 2zm7-7a1 1 0 1 0 0-2 1 1 0 0 0 0 2zm0 14a1 1 0 1 0 0-2 1 1 0 0 0 0 2z"/>
    </defs>
    <g fill="none" fill-rule="evenodd">
        <mask id="b" fill="#fff">
            <use xlink:href="#a"/>
        </mask>
        <use fill="#000" xlink:href="#a"/>
        <g fill="#203040" mask="url(#b)">
            <path d="M0 0h24v24H0z"/>
        </g>
    </g>
</svg>
