<svg xmlns="http://www.w3.org/2000/svg" xmlns:xlink="http://www.w3.org/1999/xlink" width="24" height="24" viewBox="0 0 24 24">
    <defs>
        <path id="a" d="M8 4v3h7a1 1 0 0 1 0 2H7a1 1 0 0 1-1-1V4H5a1 1 0 0 0-1 1v14a1 1 0 0 0 1 1h1v-7a1 1 0 0 1 1-1h10a1 1 0 0 1 1 1v7h1a1 1 0 0 0 1-1V8.414L15.586 4H8zm8 16v-6H8v6h8zm3 2H5a3 3 0 0 1-3-3V5a3 3 0 0 1 3-3h11a1 1 0 0 1 .707.293l5 5A1 1 0 0 1 22 8v11a3 3 0 0 1-3 3z"/>
    </defs>
    <g fill="none" fill-rule="evenodd">
        <mask id="b" fill="#fff">
            <use xlink:href="#a"/>
        </mask>
        <use fill="transparent" fill-rule="nonzero" xlink:href="#a"/>
        <g fill="#fff" mask="url(#b)">
            <path d="M0 0h24v24H0z"/>
        </g>
    </g>
</svg>
