<svg xmlns="http://www.w3.org/2000/svg" xmlns:xlink="http://www.w3.org/1999/xlink" width="20" height="20" viewBox="0 0 20 20">
    <defs>
        <path id="a" d="M16.916 7.263a.54.54 0 0 0 .442.237h.142a2.5 2.5 0 1 1 0 5h-.072c-.216 0-.41.13-.495.328a.542.542 0 0 0 .098.6l.05.05a2.5 2.5 0 1 1-3.537 3.536l-.043-.043a.545.545 0 0 0-.606-.105.54.54 0 0 0-.328.492v.142a2.5 2.5 0 0 1-5 0 .582.582 0 0 0-.403-.57.539.539 0 0 0-.591.1l-.05.05a2.5 2.5 0 1 1-3.537-3.536l.043-.043a.545.545 0 0 0 .105-.606.54.54 0 0 0-.492-.328H2.5a2.5 2.5 0 0 1 0-5 .582.582 0 0 0 .57-.403.539.539 0 0 0-.1-.591l-.05-.05a2.5 2.5 0 1 1 3.536-3.537l.043.043a.542.542 0 0 0 .598.109.833.833 0 0 1 .166-.054.54.54 0 0 0 .237-.442V2.5a2.5 2.5 0 0 1 5 0v.072c0 .216.13.41.336.499.203.09.44.046.591-.102l.05-.05a2.5 2.5 0 1 1 3.537 3.537l-.043.043a.542.542 0 0 0-.109.598.833.833 0 0 1 .054.166zM7.608 4.726a2.212 2.212 0 0 1-2.28-.512l-.05-.05a.833.833 0 1 0-1.18 1.18l.056.057c.631.645.806 1.61.461 2.387a2.214 2.214 0 0 1-2.04 1.445H2.5a.833.833 0 0 0 0 1.667h.145c.88.004 1.674.53 2.017 1.33.365.826.19 1.79-.448 2.443l-.05.05a.833.833 0 1 0 1.18 1.18l.057-.057c.645-.631 1.61-.806 2.387-.461a2.214 2.214 0 0 1 1.445 2.04v.075a.833.833 0 0 0 1.667 0v-.145c.004-.88.53-1.674 1.33-2.017a2.211 2.211 0 0 1 2.443.448l.05.05a.833.833 0 1 0 1.18-1.18l-.057-.057a2.208 2.208 0 0 1-.442-2.435 2.206 2.206 0 0 1 2.021-1.33h.075a.833.833 0 1 0 0-1.667h-.145a2.208 2.208 0 0 1-2.02-1.339.833.833 0 0 1-.061-.22 2.212 2.212 0 0 1 .512-2.28l.05-.05a.833.833 0 1 0-1.18-1.18l-.057.056a2.205 2.205 0 0 1-2.427.445 2.21 2.21 0 0 1-1.339-2.024V2.5a.833.833 0 1 0-1.666 0v.145a2.208 2.208 0 0 1-1.339 2.02.833.833 0 0 1-.22.061zM10 13.333a3.333 3.333 0 1 1 0-6.666 3.333 3.333 0 0 1 0 6.666zm0-1.666a1.667 1.667 0 1 0 0-3.334 1.667 1.667 0 0 0 0 3.334z"/>
    </defs>
    <g fill="none" fill-rule="evenodd">
        <path fill="transparent" d="M-243-47h375v667h-375z"/>
        <g>
            <mask id="b" fill="#fff">
                <use xlink:href="#a"/>
            </mask>
            <use fill="#000" fill-rule="nonzero" xlink:href="#a"/>
            <g fill="#fff" mask="url(#b)">
                <path d="M0 0h20v20H0z"/>
            </g>
        </g>
    </g>
</svg>
